<svg width="167" height="51" viewBox="0 0 167 51" fill="none" xmlns="http://www.w3.org/2000/svg">
<g filter="url(#filter0_d_12_145)">
<path d="M8.77053 35.8C8.21474 35.5067 7.48912 35.2933 6.59368 35.16C5.69825 35.0267 4.94175 35.0533 4.32421 35.24C5.00351 34.9467 5.76 34.7333 6.59368 34.6C5.94526 34.4667 5.42035 34.2667 5.01895 34C5.57474 34.08 6.22316 34.04 6.96421 33.88C7.70526 33.7467 8.30737 33.5467 8.77053 33.28C8.18386 33.3867 7.48912 33.3333 6.68632 33.12C5.88351 32.9067 5.25053 32.64 4.78737 32.32C5.37404 32.4267 6.05333 32.3733 6.82526 32.16C7.62807 31.9467 8.27649 31.68 8.77053 31.36C8.36912 31.4933 7.89053 31.52 7.33474 31.44C6.77895 31.3333 6.33122 31.1733 5.99158 30.96C6.39299 31.04 6.85614 31.04 7.38105 30.96C7.93684 30.88 8.4 30.7467 8.77053 30.56C8.06035 30.5867 7.22667 30.4533 6.26947 30.16C5.31228 29.8667 4.55579 29.52 4 29.12C4.71018 29.2267 5.54386 29.12 6.50105 28.8C7.45825 28.4533 8.21474 28.0933 8.77053 27.72C8.15299 27.5867 7.45825 27.2933 6.68632 26.84C5.94526 26.3867 5.42035 25.92 5.11158 25.44C5.69825 25.7067 6.45474 25.8267 7.38105 25.8C8.30737 25.7733 9.04842 25.6267 9.60421 25.36C9.44983 25.0133 9.3572 24.5333 9.32632 23.92C9.32632 23.3067 9.40351 22.8533 9.5579 22.56C8.81684 22.0267 8.29193 21.5067 7.98316 21C8.4772 21.1867 9.06386 21.32 9.74316 21.4C10.4533 21.4533 11.1481 21.4533 11.8274 21.4C12.5375 21.3467 13.1242 21.2133 13.5874 21C12.9389 21.0267 12.1825 20.8533 11.3179 20.48C10.4533 20.1067 9.78947 19.72 9.32632 19.32C9.97474 19.4267 10.7621 19.4133 11.6884 19.28C12.6456 19.1467 13.4021 18.92 13.9579 18.6C13.4947 18.2267 12.8463 17.9467 12.0126 17.76C11.1789 17.5467 10.4533 17.48 9.83579 17.56C10.3916 17.32 11.0863 17.1467 11.92 17.04C12.7537 16.9067 13.4793 16.8933 14.0968 17C13.5719 16.7333 12.9235 16.5467 12.1516 16.44C11.3796 16.3067 10.7004 16.2933 10.1137 16.4C10.5151 16.16 11.0554 15.9867 11.7347 15.88C11.1789 15.7733 10.6386 15.6267 10.1137 15.44C9.61965 15.2267 9.21825 14.9867 8.90947 14.72C9.65053 14.88 10.546 14.8133 11.5958 14.52C12.6765 14.2267 13.5256 13.88 14.1432 13.48C13.4021 13.64 12.5221 13.5867 11.5032 13.32C10.5151 13.0533 9.71228 12.7333 9.09474 12.36C9.83579 12.4667 10.7004 12.4 11.6884 12.16C12.7074 11.92 13.5256 11.6133 14.1432 11.24C13.8344 10.9467 13.3558 10.7067 12.7074 10.52C12.0898 10.3067 11.5495 10.2267 11.0863 10.28C11.3951 9.9867 11.8583 9.76 12.4758 9.6C13.1242 9.4133 13.68 9.32 14.1432 9.32C13.8035 9 13.2786 8.73333 12.5684 8.52C11.8891 8.28 11.3025 8.17333 10.8084 8.2C11.1481 7.88 11.6575 7.6 12.3368 7.36C13.047 7.12 13.6491 7.02667 14.1432 7.08C13.9888 6.70667 13.9116 6.22667 13.9116 5.64C13.9425 5.05333 14.0505 4.57333 14.2358 4.2C14.4211 4.57333 14.7607 4.97333 15.2547 5.4C15.7796 5.8 16.2583 6.05333 16.6905 6.16C17.0301 5.6 17.2617 4.92 17.3853 4.12C17.5088 3.29333 17.4625 2.57333 17.2463 1.96C17.5859 2.49333 17.8175 3.12 17.9411 3.84C18.0646 3.38666 18.2189 2.94666 18.4042 2.52C18.6204 2.09333 18.8828 1.74666 19.1916 1.48C19.0372 2.17333 19.0989 2.98667 19.3768 3.92C19.6857 4.85333 20.087 5.6 20.5811 6.16C20.4884 5.78667 20.5347 5.33333 20.72 4.8C20.9053 4.24 21.1522 3.82667 21.4611 3.56C21.4301 3.96 21.5074 4.41333 21.6926 4.92C21.8779 5.42667 22.1095 5.84 22.3874 6.16C22.6962 5.73333 22.9278 5.2 23.0821 4.56C23.2365 3.89333 23.252 3.32 23.1284 2.84C23.4063 3.13333 23.607 3.50667 23.7305 3.96C23.8541 4.41333 23.9312 4.86666 23.9621 5.32C24.0238 4.94667 24.1474 4.56 24.3326 4.16C24.5488 3.76 24.7958 3.45333 25.0737 3.24C25.0428 3.66667 25.1509 4.18666 25.3979 4.8C25.6449 5.38667 25.9383 5.84 26.2779 6.16C26.2162 5.76 26.2625 5.29333 26.4168 4.76C26.5712 4.22667 26.7874 3.72 27.0653 3.24C27.3741 2.76 27.6983 2.37333 28.0379 2.08C28.007 2.69333 28.1614 3.42666 28.5011 4.28C28.8407 5.10666 29.273 5.73333 29.7979 6.16C29.8596 5.76 30.0449 5.26667 30.3537 4.68C30.6933 4.06667 31.0638 3.64 31.4653 3.4C31.4653 3.82667 31.6505 4.33333 32.0211 4.92C32.3916 5.48 32.7621 5.89333 33.1326 6.16C33.04 5.81333 33.0554 5.4 33.179 4.92C33.3333 4.44 33.5186 4.05333 33.7347 3.76C33.6421 4.10667 33.6575 4.53333 33.7811 5.04C33.9046 5.52 34.1053 5.89333 34.3832 6.16C34.2596 5.6 34.2751 4.96 34.4295 4.24C34.6147 3.49333 34.8772 2.88 35.2168 2.4C35.0625 2.96 35.0625 3.62667 35.2168 4.4C35.3712 5.14667 35.6491 5.73333 36.0505 6.16C36.4211 5.68 36.6836 5.06667 36.8379 4.32C36.9922 3.54667 36.9768 2.88 36.7916 2.32C37.3474 3.06667 37.6407 3.96 37.6716 5C37.8568 4.33333 38.1193 3.82667 38.459 3.48C38.3972 3.88 38.4435 4.36 38.5979 4.92C38.7832 5.45333 39.0457 5.86667 39.3853 6.16C40.1572 5.94667 41.068 5.89333 42.1179 6C43.1986 6.08 44.0941 6.26667 44.8042 6.56C44.0322 6.45333 43.1214 6.57333 42.0716 6.92C41.0217 7.24 40.2344 7.66667 39.7095 8.2C40.2344 8.17333 40.852 8.33333 41.5621 8.68C42.3032 9 42.828 9.33333 43.1368 9.68C42.612 9.7067 41.979 9.88 41.2379 10.2C40.5278 10.52 40.0183 10.8533 39.7095 11.2C40.2036 11.2267 40.7901 11.3733 41.4695 11.64C42.1488 11.88 42.6428 12.16 42.9516 12.48C42.4575 12.4533 41.8709 12.5867 41.1916 12.88C40.5122 13.1467 40.0183 13.44 39.7095 13.76C40.1417 14.1067 40.7438 14.4 41.5158 14.64C42.2878 14.88 42.967 15.0133 43.5537 15.04C43.2141 15.28 42.7509 15.52 42.1642 15.76C41.6084 16 41.068 16.16 40.5432 16.24C41.068 16.24 41.6084 16.2933 42.1642 16.4C42.7509 16.5067 43.2295 16.68 43.6 16.92C43.0442 16.8133 42.3804 16.84 41.6084 17C40.8365 17.1333 40.2036 17.32 39.7095 17.56C40.2036 17.8 40.8057 17.9867 41.5158 18.12C42.2568 18.2533 42.8899 18.2533 43.4147 18.12C42.9825 18.4133 42.3804 18.6267 41.6084 18.76C40.8674 18.8667 40.2344 18.84 39.7095 18.68C40.0491 18.9733 40.5432 19.2667 41.1916 19.56C41.84 19.8533 42.4112 20.0133 42.9053 20.04C42.5965 20.36 42.1025 20.6667 41.4232 20.96C40.7747 21.2533 40.2189 21.4 39.7558 21.4C40.1572 21.3733 40.6049 21.4533 41.0989 21.64C41.6238 21.8267 42.0716 22.04 42.4421 22.28C42.5657 21.8267 42.6274 21.4133 42.6274 21.04C42.9979 21.6267 43.2295 22.3867 43.3221 23.32C43.4147 24.2267 43.3221 25 43.0442 25.64C43.4147 25.9333 43.9242 26.1467 44.5726 26.28C45.252 26.3867 45.8386 26.4133 46.3326 26.36C45.9312 26.6 45.4063 26.8 44.7579 26.96C44.1095 27.12 43.5383 27.16 43.0442 27.08C43.6309 27.4267 44.3874 27.7067 45.3137 27.92C46.2709 28.1333 47.0891 28.1733 47.7684 28.04C47.367 28.3067 46.8421 28.52 46.1937 28.68C45.5762 28.84 44.9586 28.9467 44.3411 29C45.113 29.1067 45.7305 29.3067 46.1937 29.6C45.7305 29.4933 45.1747 29.5067 44.5263 29.64C43.9088 29.7733 43.4147 29.9733 43.0442 30.24C43.8162 30.16 44.727 30.2667 45.7768 30.56C46.8267 30.8533 47.6141 31.2267 48.139 31.68C47.367 31.6533 46.4716 31.7867 45.4526 32.08C44.4337 32.3467 43.6309 32.6933 43.0442 33.12C43.4765 33.04 43.9705 33.04 44.5263 33.12C45.113 33.2 45.5916 33.3333 45.9621 33.52C45.5299 33.4133 45.0204 33.4 44.4337 33.48C43.8779 33.56 43.4147 33.7067 43.0442 33.92C43.5383 34.3733 44.2793 34.7333 45.2674 35C46.2863 35.2667 47.1663 35.3733 47.9074 35.32C47.4133 35.8 46.6568 36.16 45.6379 36.4C44.6499 36.6667 43.7853 36.7867 43.0442 36.76C43.3221 37.1867 43.7543 37.5867 44.3411 37.96C44.9586 38.36 45.5453 38.6133 46.1011 38.72C45.5453 38.8267 44.8968 38.8267 44.1558 38.72C43.4147 38.6133 42.8126 38.4267 42.3495 38.16C41.8246 38.6933 41.4386 39.4267 41.1916 40.36C40.9446 41.32 40.8983 42.1467 41.0526 42.84C40.6204 42.3333 40.2653 41.6667 39.9874 40.84C39.7095 40.04 39.6014 39.3067 39.6632 38.64C39.5705 39.0133 39.4162 39.4 39.2 39.8C38.9838 40.2267 38.7368 40.5467 38.459 40.76C38.4899 40.36 38.3663 39.88 38.0884 39.32C37.8105 38.7867 37.5017 38.4 37.1621 38.16C36.7607 38.48 36.3747 38.96 36.0042 39.6C35.6646 40.24 35.4947 40.8 35.4947 41.28C35.0933 40.96 34.7074 40.48 34.3368 39.84C33.9663 39.2 33.7965 38.64 33.8274 38.16C33.5804 38.0533 33.0863 37.96 32.3453 37.88C31.6042 37.8 30.7859 37.7333 29.8905 37.68C28.9951 37.6533 28.1614 37.64 27.3895 37.64C26.6484 37.6667 26.1543 37.72 25.9074 37.8C26.1235 37.64 26.6175 37.4 27.3895 37.08C28.1922 36.76 29.0414 36.4533 29.9368 36.16C30.8632 35.8667 31.6659 35.64 32.3453 35.48C31.8821 35.5067 31.4035 35.4667 30.9095 35.36C30.4463 35.28 29.9832 35.16 29.52 35C29.4583 35.2933 29.4274 35.56 29.4274 35.8C29.1495 35.5333 28.8716 35.16 28.5937 34.68C28.3775 34.5733 28.1614 34.4667 27.9453 34.36C28.1305 34.4133 28.3158 34.44 28.5011 34.44C28.3467 34.12 28.2078 33.7867 28.0842 33.44C27.9916 33.12 27.9453 32.8267 27.9453 32.56C27.5438 33.0133 27.2042 33.6267 26.9263 34.4C26.6484 35.1733 26.5867 35.84 26.7411 36.4C26.3396 35.9467 26.0154 35.3333 25.7684 34.56C25.5522 33.8133 25.4751 33.1467 25.5368 32.56C25.012 33.04 24.6259 33.72 24.3789 34.6C24.1628 35.5067 24.0857 36.2933 24.1474 36.96C23.7151 36.5333 23.36 35.9467 23.0821 35.2C22.8042 34.4533 22.6653 33.7733 22.6653 33.16C22.48 33.96 22.1404 34.6 21.6463 35.08C21.6772 34.8667 21.6463 34.6267 21.5537 34.36C21.0596 34.2533 20.473 34.2533 19.7937 34.36C19.7628 34.5733 19.732 34.7733 19.7011 34.96C20.1333 35.0933 20.5347 35.2533 20.9053 35.44C21.3067 35.6533 21.6154 35.8667 21.8316 36.08C21.5228 36.0533 21.1832 36.0933 20.8126 36.2C20.4421 36.3333 20.087 36.48 19.7474 36.64C19.7783 36.88 19.8246 37.0933 19.8863 37.28C19.7937 37.0933 19.7011 36.9067 19.6084 36.72C19.1453 36.9333 18.7747 37.16 18.4968 37.4C18.3425 37.88 18.3116 38.4533 18.4042 39.12C18.4968 39.7867 18.6975 40.3333 19.0063 40.76C18.4814 40.5467 17.972 40.1733 17.4779 39.64C16.9838 39.1333 16.6596 38.64 16.5053 38.16C16.6596 38.6933 16.6596 39.32 16.5053 40.04C16.3509 40.7867 16.1038 41.3867 15.7642 41.84C15.8878 41.3067 15.8878 40.6667 15.7642 39.92C15.6716 39.1733 15.4246 38.5867 15.0232 38.16C14.5291 38.6667 14.1432 39.3733 13.8653 40.28C13.5874 41.1867 13.5411 41.96 13.7263 42.6C13.2632 42.0667 12.9081 41.36 12.6611 40.48C12.414 39.6 12.3368 38.8267 12.4295 38.16C11.9972 38.56 11.673 39.12 11.4568 39.84C11.2716 40.56 11.2253 41.1867 11.3179 41.72C10.9474 41.2933 10.6386 40.7467 10.3916 40.08C10.2989 40.96 10.0519 41.6667 9.65053 42.2C9.83579 41.6133 9.88211 40.8133 9.78947 39.8C9.69684 38.8133 9.3572 37.48 8.77053 35.8ZM29.4274 13.36C29.273 13.5733 29.1341 13.84 29.0105 14.16C29.1032 14.1333 29.1804 14.1067 29.2421 14.08C29.3657 13.8133 29.4274 13.5733 29.4274 13.36ZM26.4168 22.52C26.3859 22.9467 26.4322 23.44 26.5558 24C26.7101 24.56 26.9417 25.0133 27.2505 25.36C27.3741 25.2267 27.4821 25.0667 27.5747 24.88L27.4821 24.8C27.4821 24.8 27.5284 24.8 27.6211 24.8C27.7446 24.5333 27.8372 24.24 27.8989 23.92C27.9916 23.6 28.0225 23.32 27.9916 23.08C28.2078 23.2933 28.393 23.5867 28.5474 23.96C28.5474 23.8533 28.5474 23.76 28.5474 23.68H28.5011C28.5011 23.68 28.5165 23.6533 28.5474 23.6C28.6091 23.1733 28.7172 22.8133 28.8716 22.52C28.2541 22.4133 27.7446 22.4 27.3432 22.48C27.652 22.2667 28.0688 22.12 28.5937 22.04C29.1186 21.9333 29.5817 21.92 29.9832 22C29.7053 21.84 29.3501 21.72 28.9179 21.64C28.4857 21.5333 28.1151 21.52 27.8063 21.6C28.3312 21.3067 28.9333 21.16 29.6126 21.16C29.1495 21.1067 28.7944 20.96 28.5474 20.72C28.7636 20.72 29.0105 20.68 29.2884 20.6C29.5972 20.4933 29.8288 20.3733 29.9832 20.24C29.767 20.2667 29.52 20.24 29.2421 20.16C28.9642 20.0533 28.7636 19.9467 28.64 19.84C29.1649 19.8667 29.6126 19.7333 29.9832 19.44C29.767 19.28 29.4428 19.1333 29.0105 19C28.6091 18.8667 28.2541 18.8267 27.9453 18.88C28.1614 18.6933 28.4701 18.5467 28.8716 18.44C29.3038 18.3067 29.6744 18.2667 29.9832 18.32C29.8288 18.1867 29.5972 18.08 29.2884 18C29.0105 17.92 28.7636 17.8933 28.5474 17.92C28.8562 17.68 29.2267 17.5467 29.6589 17.52C28.9179 17.4667 28.3158 17.2533 27.8526 16.88C28.1614 16.9067 28.532 16.8533 28.9642 16.72C29.3965 16.5867 29.7362 16.4267 29.9832 16.24C29.7362 15.9733 29.3501 15.7733 28.8253 15.64C28.8562 15.9333 28.9025 16.1867 28.9642 16.4C28.8407 16.16 28.7172 15.8933 28.5937 15.6V15.56C28.532 15.32 28.4857 15.0533 28.4547 14.76C28.3621 14.7333 28.2849 14.7067 28.2232 14.68C28.0996 14.8667 27.9916 15.0267 27.8989 15.16C27.8989 14.9733 27.868 14.76 27.8063 14.52C27.652 14.4667 27.5284 14.4 27.4358 14.32C27.5284 14.3467 27.6365 14.36 27.76 14.36C27.6365 13.9067 27.4667 13.5733 27.2505 13.36C26.9109 13.76 26.6638 14.2933 26.5095 14.96C26.3551 15.6 26.3242 16.1733 26.4168 16.68C25.9537 16.2 25.6604 15.5333 25.5368 14.68C25.5678 14.68 25.5522 14.68 25.4905 14.68C25.4288 14.9733 25.3053 15.2 25.12 15.36C25.1817 15.1733 25.1972 14.9467 25.1663 14.68C24.8884 14.68 24.5951 14.7067 24.2863 14.76C24.2863 14.8933 24.3017 15.04 24.3326 15.2C24.8575 15.3333 25.2589 15.5067 25.5368 15.72C25.228 15.6667 24.8575 15.7067 24.4253 15.84V15.88C24.4253 15.88 24.4253 15.8667 24.4253 15.84C23.9621 15.9733 23.6225 16.1333 23.4063 16.32C23.7768 16.2667 24.2091 16.3067 24.7032 16.44C25.1972 16.5467 25.5832 16.72 25.8611 16.96C25.4905 16.9067 25.0428 16.92 24.5179 17C24.0238 17.08 23.6379 17.2267 23.36 17.44C23.607 17.4133 23.9004 17.4533 24.24 17.56C24.6105 17.6667 24.8884 17.7867 25.0737 17.92C24.8267 17.8667 24.5179 17.88 24.1474 17.96C23.8078 18.0133 23.5299 18.1067 23.3137 18.24C23.468 18.4533 23.7151 18.6533 24.0547 18.84C24.4253 19 24.7341 19.0933 24.9811 19.12C24.6105 19.44 24.1011 19.64 23.4526 19.72C24.2554 19.7467 24.9193 19.9867 25.4442 20.44C25.1354 20.3333 24.7341 20.3067 24.24 20.36C23.7459 20.4133 23.3446 20.52 23.0358 20.68C23.1901 20.84 23.4063 21.0267 23.6842 21.24C23.993 21.4267 24.2709 21.52 24.5179 21.52C24.3326 21.6533 24.0547 21.7733 23.6842 21.88C23.3446 21.9867 23.0512 22.0133 22.8042 21.96C22.9278 22.1733 23.1438 22.3867 23.4526 22.6C23.7922 22.8133 24.0701 22.9467 24.2863 23C24.4099 22.6533 24.5796 22.3867 24.7958 22.2C24.6414 22.6533 24.6568 23.2 24.8421 23.84C25.0274 24.48 25.2899 24.9867 25.6295 25.36C25.5059 24.96 25.5214 24.4667 25.6758 23.88C25.8301 23.2933 26.0772 22.84 26.4168 22.52ZM24.7032 13.36C24.5796 13.4933 24.487 13.68 24.4253 13.92C24.6722 13.9467 24.8575 13.9467 24.9811 13.92C24.8884 13.7067 24.7958 13.52 24.7032 13.36ZM24.3326 14.32C24.6105 14.3467 24.873 14.4 25.12 14.48C25.0891 14.2933 25.0428 14.1067 24.9811 13.92C24.8267 14.0267 24.6259 14.12 24.3789 14.2L24.3326 14.32ZM28.4084 14.28V14.24V14.28ZM25.5368 14.68V14.64V14.68ZM29.9832 14.96C29.6744 14.9867 29.3193 14.96 28.9179 14.88C28.887 14.88 28.8716 14.88 28.8716 14.88C28.8407 15.0133 28.8253 15.1733 28.8253 15.36C29.2575 15.0933 29.6436 14.96 29.9832 14.96ZM23.4063 15.08C23.5607 15.08 23.7151 15.0933 23.8695 15.12C23.8386 15.04 23.8078 14.9733 23.7768 14.92C23.7151 14.92 23.5916 14.9733 23.4063 15.08ZM29.9832 22.96C29.7053 22.7733 29.3347 22.64 28.8716 22.56C28.8407 22.7733 28.8562 23.0267 28.9179 23.32C29.3193 23.08 29.6744 22.96 29.9832 22.96ZM12.5221 23.88C12.1207 23.8 11.6884 23.6667 11.2253 23.48C10.793 23.2933 10.3607 23.0667 9.92842 22.8C10.2681 23.0667 10.6849 23.3067 11.1789 23.52C11.7039 23.7333 12.1516 23.8533 12.5221 23.88ZM39.7095 24.08C40.3888 24.1067 41.1453 23.9467 41.979 23.6C42.1025 23.3333 42.2105 23.0667 42.3032 22.8C41.84 22.9067 41.3459 23.08 40.8211 23.32C40.327 23.56 39.9565 23.8133 39.7095 24.08ZM23.4989 23.44C23.6842 23.6533 23.8232 23.92 23.9158 24.24V24.28C23.9775 23.8533 24.0857 23.4533 24.24 23.08C23.993 23.2133 23.6842 23.3067 23.3137 23.36C22.9741 23.4133 22.6807 23.4267 22.4337 23.4C22.6499 23.6667 23.0204 23.9067 23.5453 24.12C23.5762 23.88 23.5607 23.6533 23.4989 23.44ZM29.9832 24.4C29.8288 24.1867 29.5354 24 29.1032 23.84C29.1958 24.1067 29.3193 24.36 29.4737 24.6C29.6589 24.5467 29.8288 24.48 29.9832 24.4ZM22.8968 24.44C23.0512 24.52 23.2057 24.6133 23.36 24.72C23.3909 24.6667 23.4217 24.6 23.4526 24.52C23.2674 24.4933 23.0821 24.4667 22.8968 24.44ZM23.0358 25.36C23.0358 25.36 23.0512 25.3333 23.0821 25.28C22.9278 25.2533 22.8351 25.2533 22.8042 25.28C22.7733 25.28 22.8505 25.3067 23.0358 25.36ZM20.5347 32.56C20.4421 32.6933 20.3649 32.84 20.3032 33C20.7046 33.24 21.0596 33.4933 21.3684 33.76C21.1522 33.2267 20.8743 32.8267 20.5347 32.56ZM30.9095 32.56C30.6316 32.7467 30.3846 33.0133 30.1684 33.36C29.9832 33.7067 29.8288 34.0667 29.7053 34.44C30.2301 34.3867 30.7705 34.2933 31.3263 34.16C31.2954 33.44 31.1565 32.9067 30.9095 32.56ZM18.4968 34.76C18.6821 34.76 18.8828 34.7867 19.0989 34.84C19.0989 34.7333 19.0989 34.6267 19.0989 34.52C18.852 34.6 18.6512 34.68 18.4968 34.76ZM54.379 31.16C53.7305 31.2933 52.974 31.2933 52.1095 31.16C51.2758 31.0267 50.5656 30.8133 49.979 30.52C50.5965 30.7067 51.3375 30.72 52.2021 30.56C53.0975 30.4 53.8232 30.1733 54.379 29.88C53.9158 29.8533 53.36 29.7067 52.7116 29.44C52.094 29.1733 51.6308 28.8933 51.3221 28.6C51.7853 28.5733 52.3411 28.44 52.9895 28.2C53.6379 27.9333 54.1011 27.64 54.379 27.32C53.7923 26.9733 53.0203 26.68 52.0632 26.44C51.1369 26.2 50.334 26.1467 49.6548 26.28C50.2105 25.9067 50.967 25.6133 51.9242 25.4C52.8813 25.16 53.6996 25.12 54.379 25.28C53.7923 24.9333 53.0358 24.6667 52.1095 24.48C51.214 24.2667 50.4266 24.24 49.7474 24.4C50.1487 24.08 50.6891 23.8533 51.3684 23.72C52.0786 23.56 52.7579 23.48 53.4063 23.48C52.974 23.4 52.5263 23.28 52.0632 23.12C51.6308 22.96 51.2912 22.7733 51.0442 22.56C51.5382 22.6133 52.1249 22.5467 52.8042 22.36C53.5144 22.1733 54.0392 21.92 54.379 21.6C54.0701 21.28 53.5761 21.0133 52.8969 20.8C52.2484 20.5867 51.6926 20.5067 51.2295 20.56C51.5691 20.2667 52.0632 20.0133 52.7116 19.8C53.36 19.56 53.9158 19.4667 54.379 19.52C53.9466 19.2533 53.36 19.0533 52.619 18.92C51.9087 18.76 51.2912 18.7467 50.7663 18.88C51.2295 18.64 51.8161 18.4533 52.5263 18.32C53.2365 18.16 53.854 18.1333 54.379 18.24C53.8232 17.76 53.0049 17.3867 51.9242 17.12C50.8434 16.8533 49.9171 16.72 49.1453 16.72C49.5158 16.3733 50.0407 16.08 50.72 15.84C51.3684 15.6 52.0323 15.4267 52.7116 15.32C52.094 15.2667 51.4765 15.16 50.859 15C50.2105 14.8133 49.6855 14.56 49.2842 14.24C50.0253 14.4267 50.9053 14.4133 51.9242 14.2C52.9432 13.96 53.7613 13.6533 54.379 13.28C54.0392 12.9867 53.5761 12.72 52.9895 12.48C52.4337 12.2133 51.847 12.0133 51.2295 11.88C50.6119 11.7467 50.0716 11.72 49.6084 11.8C50.0716 11.3733 50.7508 11.0133 51.6463 10.72C52.5417 10.4 53.3445 10.24 54.0548 10.24C53.5916 10.1867 53.0666 10.0267 52.48 9.76C51.8933 9.4667 51.4456 9.18667 51.1369 8.92C51.6308 8.89333 52.2175 8.74666 52.8969 8.48C53.5761 8.18667 54.0701 7.88 54.379 7.56C54.379 7.16 54.2245 6.70667 53.9158 6.2C53.6379 5.66666 53.3291 5.25333 52.9895 4.96C53.4526 4.96 53.9929 5.09333 54.6105 5.36C55.228 5.6 55.6912 5.86667 56 6.16C55.8148 5.52 55.8455 4.77333 56.0926 3.92C56.3705 3.06667 56.7102 2.36 57.1116 1.8C56.988 2.44 57.019 3.2 57.2042 4.08C57.4203 4.96 57.76 5.65333 58.2232 6.16C58.0687 5.65333 58.0996 5.04 58.3158 4.32C58.5628 3.6 58.9024 3.04 59.3347 2.64C59.1803 3.14667 59.2266 3.76 59.4737 4.48C59.7516 5.17333 60.0758 5.73333 60.4463 6.16C60.3845 5.78667 60.4926 5.34667 60.7705 4.84C61.0484 4.30666 61.3417 3.90667 61.6505 3.64C61.6505 4.01333 61.7586 4.46667 61.9748 5C62.2217 5.50666 62.4996 5.89333 62.8084 6.16C62.5305 5.54667 62.4533 4.8 62.5769 3.92C62.7003 3.04 62.9628 2.32 63.3642 1.76C63.148 2.4 63.0863 3.16 63.179 4.04C63.3024 4.89333 63.5495 5.6 63.92 6.16C64.414 5.70667 64.7845 5.06667 65.0316 4.24C65.3095 3.38666 65.3712 2.65333 65.2169 2.04C65.6491 2.54666 65.9887 3.21333 66.2358 4.04C66.4828 4.84 66.5754 5.54667 66.5137 6.16C66.7916 5.89333 67.0077 5.52 67.1621 5.04C67.3474 4.53333 67.44 4.10667 67.44 3.76C67.7487 4.02667 67.9803 4.41333 68.1348 4.92C68.32 5.4 68.3971 5.81333 68.3663 6.16C68.3971 5.73333 68.5516 5.22666 68.8295 4.64C69.1382 4.05333 69.4933 3.62667 69.8948 3.36C69.8329 3.78667 69.9411 4.30667 70.219 4.92C70.4969 5.50667 70.8056 5.94667 71.1453 6.24C71.2687 5.65333 71.5621 4.96 72.0253 4.16C72.5192 3.36 73.0596 2.8 73.6463 2.48C73.3992 3.04 73.3684 3.77333 73.5537 4.68C73.7698 5.56 74.0632 6.25333 74.4337 6.76C74.4954 6.12 74.7579 5.42667 75.2211 4.68C75.715 3.90667 76.2708 3.33333 76.8884 2.96C76.5179 3.52 76.24 4.22667 76.0548 5.08C75.9003 5.90666 75.8849 6.64 76.0084 7.28C76.7495 6.98667 77.5369 6.52 78.3705 5.88C79.2042 5.24 79.7754 4.6 80.0842 3.96C80.1769 4.57333 80.115 5.32 79.899 6.2C79.6828 7.05333 79.3277 7.74667 78.8337 8.28C79.235 7.96 79.7445 7.68 80.3621 7.44C80.9796 7.2 81.5354 7.04 82.0295 6.96C81.5354 7.22667 81.0877 7.65333 80.6863 8.24C80.2849 8.82667 80.0379 9.3733 79.9453 9.88C80.4392 9.29333 81.1958 8.81333 82.2147 8.44C83.2337 8.04 84.1445 7.84 84.9474 7.84C84.1754 8.05333 83.3571 8.45333 82.4927 9.04C81.659 9.6 81.0413 10.1867 80.64 10.8C81.1958 10.64 81.9059 10.5733 82.7705 10.6C83.635 10.6 84.3453 10.72 84.9011 10.96C84.3144 11.0933 83.6659 11.3867 82.9558 11.84C82.2455 12.2933 81.7824 12.76 81.5663 13.24C82.3382 13.16 83.2491 13.2667 84.299 13.56C85.3796 13.8267 86.2133 14.1733 86.8 14.6C86.3059 14.5733 85.7192 14.6267 85.04 14.76C84.3607 14.8933 83.7123 15.0933 83.0948 15.36C82.508 15.6267 82.0449 15.92 81.7053 16.24C81.9832 16.5333 82.3845 16.8133 82.9095 17.08C83.4653 17.3467 83.9592 17.48 84.3916 17.48C84.0519 17.6933 83.5733 17.8267 82.9558 17.88C82.3382 17.9333 81.8133 17.92 81.3811 17.84C81.7516 18.3733 82.3691 18.84 83.2337 19.24C84.1291 19.64 84.9474 19.8933 85.6884 20C85.0708 20.1333 84.3298 20.16 83.4653 20.08C82.6316 19.9733 81.9213 19.7733 81.3348 19.48C81.6744 19.7467 81.9832 20.08 82.2611 20.48C82.5698 20.88 82.7859 21.24 82.9095 21.56C82.5081 21.32 81.9677 21.1067 81.2884 20.92C80.6091 20.7333 80.0379 20.6933 79.5748 20.8C80.1305 21.04 80.64 21.4667 81.1032 22.08C81.5663 22.6933 81.8596 23.2667 81.9832 23.8C81.6744 23.32 81.1803 22.8533 80.5011 22.4C79.8526 21.92 79.2196 21.64 78.6021 21.56C78.9417 21.96 79.1579 22.5333 79.2505 23.28C79.3432 24.0267 79.2969 24.6267 79.1116 25.08C78.8028 24.6533 78.3242 24.2267 77.6758 23.8C77.0274 23.3467 76.4253 23.04 75.8695 22.88C75.6224 23.4667 75.468 24.1867 75.4063 25.04C75.3754 25.8667 75.499 26.56 75.7769 27.12C75.1902 26.7733 74.6498 26.24 74.1558 25.52C73.6617 24.8 73.3375 24.1333 73.1832 23.52C72.8744 24.08 72.72 24.7867 72.72 25.64C72.7508 26.4933 72.9361 27.2 73.2758 27.76C72.7508 27.3067 72.3649 26.68 72.1179 25.88C71.8708 25.0533 71.7937 24.32 71.8863 23.68C71.5466 24 71.2687 24.48 71.0526 25.12C70.8365 25.7333 70.7592 26.2533 70.8211 26.68C70.4505 26.4133 70.1108 26.0133 69.8021 25.48C69.5242 24.9467 69.3544 24.4667 69.2926 24.04C69.3234 24.4133 69.2463 24.84 69.0611 25.32C68.9066 25.8 68.7059 26.2267 68.459 26.6C69.0765 26.6533 69.6013 26.64 70.0337 26.56C69.2 27.04 68.2119 27.3867 67.0695 27.6C68.0884 27.7333 68.9529 27.96 69.6632 28.28C68.9221 28.12 68.0421 28.1067 67.0232 28.24C66.035 28.3733 65.2169 28.6 64.5684 28.92C65.0007 29.2133 65.5719 29.4533 66.2821 29.64C66.9923 29.8 67.6098 29.8533 68.1348 29.8C67.7333 30.0933 67.1621 30.3333 66.4211 30.52C65.7108 30.68 65.0933 30.7333 64.5684 30.68C64.7228 31.0533 65.0624 31.4 65.5874 31.72C66.1432 32.04 66.6371 32.2667 67.0695 32.4C66.668 32.5867 66.1277 32.6933 65.4484 32.72C64.8 32.7467 64.275 32.6933 63.8737 32.56C63.9354 32.96 63.92 33.4133 63.8274 33.92C63.7348 34.4533 63.534 34.88 63.2253 35.2C63.3179 34.8 63.3024 34.3333 63.179 33.8C63.0554 33.2933 62.8548 32.88 62.5769 32.56C62.7621 33.2533 62.7466 34.0533 62.5305 34.96C62.3453 35.8933 62.0365 36.6533 61.6042 37.24C61.7895 36.5467 61.774 35.7333 61.5579 34.8C61.3417 33.8933 61.0175 33.1467 60.5853 32.56C60.7705 33.1733 60.7242 33.9067 60.4463 34.76C60.1684 35.64 59.7824 36.32 59.2884 36.8C59.3811 36.16 59.3038 35.4133 59.0569 34.56C58.8098 33.7333 58.4547 33.0667 57.9916 32.56C57.7137 32.9333 57.4975 33.4133 57.3432 34C57.2196 34.5867 57.1887 35.1067 57.2505 35.56C56.9417 35.24 56.7256 34.8 56.6021 34.24C56.4477 35.36 56.1234 36.3067 55.6295 37.08C55.8148 36.4133 55.7992 35.5733 55.5832 34.56C55.367 33.5733 54.9656 32.44 54.379 31.16ZM64.5221 12C64.5221 12 64.5838 12.0533 64.7074 12.16C64.6456 12.1067 64.5838 12.0533 64.5221 12ZM66.1432 12C66.174 12.1867 66.1123 12.4267 65.9579 12.72C66.2666 12.7733 66.4674 12.8 66.56 12.8C66.4674 12.48 66.3284 12.2133 66.1432 12ZM66.1432 16.4C66.1123 16.64 66.1432 16.9333 66.2358 17.28C66.3592 17.6 66.5137 17.8533 66.699 18.04C66.915 17.8533 67.1003 17.5733 67.2548 17.2C67.4091 16.8267 67.4708 16.5067 67.44 16.24C67.5944 16.3733 67.7179 16.56 67.8105 16.8C67.934 17.04 68.0266 17.28 68.0884 17.52C68.1192 17.04 68.2582 16.6533 68.5053 16.36C68.4744 16.6267 68.5207 16.92 68.6442 17.24C68.7677 17.5333 68.9221 17.7867 69.1074 18C69.0148 17.84 68.9684 17.6133 68.9684 17.32C68.9992 17 69.0611 16.76 69.1537 16.6C69.2771 16.76 69.4624 16.9333 69.7095 17.12C69.9874 17.3067 70.2344 17.4133 70.4505 17.44C70.327 17.1467 70.1263 16.84 69.8484 16.52C69.5705 16.1733 69.2771 15.9333 68.9684 15.8C69.1845 15.8 69.4316 15.8267 69.7095 15.88C69.6786 15.8533 69.6013 15.7867 69.4779 15.68C69.7249 15.7867 70.0491 15.8533 70.4505 15.88C70.8828 15.88 71.2379 15.8267 71.5158 15.72C71.1453 15.7733 70.7129 15.7467 70.219 15.64C69.7558 15.5333 69.3853 15.3867 69.1074 15.2C69.447 15.28 69.8638 15.2933 70.3579 15.24C70.8519 15.1867 71.2533 15.0667 71.5621 14.88C71.2224 14.6933 70.7748 14.6 70.219 14.6C69.6632 14.5733 69.2 14.6133 68.8295 14.72C69.0456 14.4267 69.4161 14.16 69.9411 13.92C69.8792 13.9467 69.7558 13.9467 69.5705 13.92C69.7558 13.7867 69.9411 13.6 70.1263 13.36C70.3424 13.12 70.4813 12.8933 70.5432 12.68C70.2344 12.7867 69.8948 12.9867 69.5242 13.28C69.1845 13.5467 68.9684 13.8133 68.8758 14.08C68.8449 13.7867 68.9221 13.4533 69.1074 13.08C69.2926 12.7067 69.5087 12.4267 69.7558 12.24C69.5396 12.3733 69.3234 12.6 69.1074 12.92C68.8912 13.2133 68.7677 13.48 68.7369 13.72C68.5207 13.4267 68.3817 13.08 68.32 12.68C68.2582 12.9467 68.1811 13.2133 68.0884 13.48C67.9958 13.72 67.8569 13.92 67.6716 14.08C67.7642 13.7867 67.7487 13.4267 67.6253 13C67.5017 12.5467 67.3165 12.2133 67.0695 12C67.1312 12.2667 67.1158 12.5867 67.0232 12.96C66.9613 13.3333 66.8224 13.6267 66.6063 13.84C66.699 13.5733 66.6834 13.24 66.56 12.84C66.3438 12.92 66.0969 12.9867 65.819 13.04C65.7263 13.1467 65.6491 13.2533 65.5874 13.36H65.7263C65.6337 13.4133 65.5102 13.4667 65.3558 13.52V13.56C64.9853 13.6933 64.6455 13.76 64.3369 13.76C64.4912 13.8933 64.7228 14.0133 65.0316 14.12C65.3712 14.2267 65.6491 14.2933 65.8653 14.32C65.7726 14.4267 65.6028 14.5333 65.3558 14.64C65.1087 14.7467 64.8617 14.8133 64.6148 14.84C64.8926 14.84 65.1859 14.8933 65.4947 15C65.8034 15.1067 66.0505 15.2133 66.2358 15.32C65.9579 15.2933 65.6182 15.3333 65.2169 15.44C64.8463 15.52 64.5529 15.64 64.3369 15.8C64.5529 15.7733 64.8 15.8133 65.0779 15.92C65.3558 16 65.5565 16.0933 65.68 16.2C65.4947 16.1733 65.2632 16.2133 64.9853 16.32C64.7074 16.4 64.4912 16.4933 64.3369 16.6C64.4912 16.76 64.7074 16.92 64.9853 17.08C65.294 17.24 65.5102 17.32 65.6337 17.32C65.7571 16.92 65.927 16.6133 66.1432 16.4ZM64.3369 12.96C64.5529 13.12 64.8771 13.24 65.3095 13.32C65.3095 13.24 65.294 13.16 65.2632 13.08C64.8926 13.08 64.5838 13.04 64.3369 12.96ZM65.5874 18.04C65.5565 17.9067 65.5565 17.7333 65.5874 17.52C65.4329 17.6533 65.3095 17.7733 65.2169 17.88C65.155 17.9867 65.2786 18.04 65.5874 18.04ZM66.7453 23.84C66.7761 24.0267 66.7916 24.2133 66.7916 24.4C66.9769 24.4533 67.1621 24.5067 67.3474 24.56C67.1621 24.2667 66.9613 24.0267 66.7453 23.84ZM66.2821 26.16C66.8687 26.3467 67.44 26.48 67.9958 26.56C67.934 25.92 67.7487 25.32 67.44 24.76C67.2238 24.7333 66.9923 24.7333 66.7453 24.76C66.6834 25.3467 66.5291 25.8133 66.2821 26.16ZM64.5684 25.44C64.9698 25.68 65.4638 25.8933 66.0505 26.08C65.927 25.7333 65.7417 25.3867 65.4947 25.04C65.1242 25.1467 64.8154 25.28 64.5684 25.44ZM95.511 32.12C95.1404 32.2 94.4611 32.2133 93.4731 32.16C92.5159 32.08 91.4661 31.9733 90.3236 31.84C89.1811 31.7067 88.1468 31.5467 87.2205 31.36C86.2632 31.1467 85.6303 30.9467 85.3215 30.76C85.692 30.84 86.3714 30.8533 87.3594 30.8C88.3166 30.7467 89.3664 30.6533 90.5089 30.52C91.6514 30.36 92.6857 30.1867 93.612 30C94.5693 29.7867 95.2022 29.5867 95.511 29.4C95.1404 29.08 94.6001 28.8 93.8899 28.56C93.2106 28.2933 92.6085 28.1733 92.0836 28.2C92.3924 27.8533 92.9019 27.5733 93.612 27.36C94.3531 27.12 94.9861 27 95.511 27C95.4493 26.6533 95.2485 26.28 94.9089 25.88C94.6001 25.4533 94.2914 25.1467 93.9826 24.96C94.3531 24.9333 94.8162 24.9867 95.372 25.12C95.9587 25.2267 96.4064 25.3867 96.7152 25.6C97.1474 25.04 97.4716 24.32 97.6878 23.44C96.7615 23.7067 95.9741 24.04 95.3257 24.44C95.5419 24.04 95.8661 23.64 96.2983 23.24C96.7615 22.8133 97.2556 22.4533 97.7804 22.16C97.7187 22.0533 97.6724 21.9467 97.6415 21.84C97.2093 21.84 96.8541 21.8 96.5762 21.72C96.9468 21.56 97.3173 21.28 97.6878 20.88C98.0893 20.48 98.3672 20.1067 98.5215 19.76C98.0583 19.68 97.5335 19.7067 96.9468 19.84C96.3601 19.9733 95.9124 20.1733 95.6036 20.44C95.8198 20.12 96.144 19.7867 96.5762 19.44C97.0394 19.0933 97.4872 18.8667 97.9194 18.76C97.271 18.68 96.5299 18.7467 95.6962 18.96C94.8935 19.1467 94.2451 19.4133 93.751 19.76C94.2451 19.0133 95.0015 18.36 96.0204 17.8C95.3411 18.04 94.5847 18.2133 93.751 18.32C92.9173 18.4267 92.1916 18.4267 91.5741 18.32C92.0682 18.16 92.5931 17.9067 93.1489 17.56C93.7356 17.1867 94.245 16.7733 94.6773 16.32C95.1404 15.8667 95.4493 15.4133 95.6036 14.96C95.1714 15.2533 94.5847 15.4667 93.8436 15.6C93.1335 15.7333 92.5158 15.7333 91.991 15.6C92.5158 15.4933 93.0408 15.2133 93.5657 14.76C94.0906 14.28 94.4457 13.84 94.631 13.44C93.9516 13.3067 93.1643 13.3733 92.2689 13.64C91.4043 13.9067 90.7095 14.24 90.1847 14.64C90.5243 14.1067 91.0493 13.5867 91.7594 13.08C92.5004 12.5733 93.2106 12.2667 93.8899 12.16C93.1798 12.1067 92.3615 12.2 91.4352 12.44C90.5398 12.68 89.8604 13.0267 89.3973 13.48C89.7369 12.9467 90.2773 12.4533 91.0183 12C91.7903 11.52 92.5158 11.2 93.1952 11.04C92.6394 10.9067 91.9293 10.8533 91.0647 10.88C90.231 10.88 89.5826 11.0133 89.1194 11.28C89.212 10.8 89.5208 10.2667 90.0457 9.68C90.6015 9.06667 91.1419 8.66667 91.6668 8.48C91.2653 8.61333 90.725 8.69333 90.0457 8.72C89.3973 8.72 88.8724 8.65333 88.471 8.52C88.8415 8.33333 89.212 8 89.5826 7.52C89.984 7.04 90.2156 6.61333 90.2773 6.24C90.5861 5.73333 90.7405 5.12 90.7405 4.4C90.7405 3.65333 90.6169 3.01333 90.3699 2.48C90.7714 2.93333 91.0493 3.52 91.2036 4.24C91.3579 4.96 91.3889 5.6 91.2962 6.16C91.605 5.84 91.8057 5.4 91.8983 4.84C91.991 4.28 92.0064 3.8 91.9447 3.4C92.2535 3.8 92.4541 4.33333 92.5468 5C92.6085 4.44 92.732 3.88 92.9173 3.32C93.1335 2.73333 93.4114 2.25333 93.751 1.88C93.5966 2.52 93.6274 3.28 93.8436 4.16C94.0906 5.01333 94.4611 5.68 94.9552 6.16C95.0787 5.94667 95.2022 5.56 95.3257 5C95.4801 4.41333 95.6036 3.78667 95.6962 3.12C95.8198 2.42666 95.8969 1.78666 95.9278 1.2C95.9587 0.613332 95.9278 0.213334 95.8352 0C96.0204 0.186667 96.1748 0.573332 96.2983 1.16C96.4219 1.74666 96.5299 2.4 96.6226 3.12C96.7152 3.81333 96.7769 4.44 96.8078 5C96.8695 4.6 96.9777 4.2 97.132 3.8C97.3173 3.4 97.5335 3.06667 97.7804 2.8C97.6569 3.30666 97.7032 3.89333 97.9194 4.56C98.1356 5.22666 98.4135 5.76 98.7531 6.16C99.3398 5.84 99.8647 5.34667 100.328 4.68C100.822 4.01333 101.131 3.4 101.254 2.84C101.47 3.37333 101.547 4.04 101.486 4.84C101.455 5.61333 101.285 6.26667 100.976 6.8C101.408 6.53333 101.964 6.34667 102.644 6.24C103.354 6.13333 103.956 6.10667 104.45 6.16C103.956 6.32 103.416 6.58667 102.829 6.96C102.242 7.30667 101.856 7.68 101.671 8.08C102.103 8.21333 102.675 8.29333 103.385 8.32C104.126 8.32 104.728 8.24 105.191 8.08C105.037 8.48 104.712 8.92 104.218 9.4C103.755 9.8533 103.307 10.1867 102.875 10.4C103.4 10.4533 104.002 10.4133 104.682 10.28C105.392 10.1467 105.963 9.9467 106.395 9.68C106.179 10.1067 105.778 10.5067 105.191 10.88C104.604 11.2533 104.048 11.48 103.524 11.56C103.894 11.64 104.311 11.6533 104.774 11.6C105.237 11.5467 105.685 11.44 106.117 11.28C106.272 11.2 106.488 11.12 106.766 11.04C106.951 10.9333 107.121 10.8267 107.275 10.72C107.244 10.8 107.198 10.8667 107.136 10.92C107.816 10.76 108.325 10.6933 108.665 10.72C108.541 10.32 108.232 9.8533 107.738 9.32C107.244 8.76 106.766 8.38667 106.303 8.2C106.766 8.01333 107.383 7.89333 108.155 7.84C108.958 7.76 109.606 7.8 110.1 7.96C109.668 7.4 109.02 6.86667 108.155 6.36C107.291 5.85333 106.472 5.57333 105.7 5.52C106.472 5.44 107.352 5.50666 108.34 5.72C109.328 5.93333 110.131 6.24 110.749 6.64C110.965 6.08 111.027 5.41333 110.934 4.64C110.872 3.86666 110.687 3.22667 110.378 2.72C110.903 3.06667 111.397 3.58667 111.86 4.28C112.324 4.94667 112.571 5.57333 112.602 6.16C112.941 5.84 113.219 5.37333 113.435 4.76C113.682 4.14667 113.759 3.62667 113.667 3.2C114.037 3.52 114.331 3.98666 114.547 4.6C114.763 5.21333 114.84 5.73333 114.778 6.16C115.242 5.70667 115.581 5.08 115.797 4.28C116.044 3.45333 116.137 2.73333 116.075 2.12C116.415 2.52 116.708 3.05333 116.955 3.72C117.233 4.36 117.372 4.97333 117.372 5.56C117.465 5 117.65 4.41333 117.928 3.8C118.237 3.18667 118.592 2.72 118.993 2.4C118.9 2.96 119.024 3.64 119.364 4.44C119.704 5.21333 120.121 5.78667 120.614 6.16C120.892 6.58667 121.355 7.04 122.003 7.52C122.683 7.97333 123.3 8.26667 123.856 8.4C123.331 8.61333 122.637 8.74666 121.772 8.8C120.938 8.82667 120.243 8.74667 119.688 8.56C120.058 9.04 120.599 9.5067 121.309 9.96C122.05 10.4133 122.744 10.72 123.393 10.88C122.744 11.04 121.973 11.04 121.077 10.88C120.182 10.6933 119.456 10.4667 118.9 10.2C119.24 10.7067 119.78 11.2133 120.521 11.72C121.294 12.2267 122.003 12.56 122.652 12.72C122.003 12.9333 121.201 12.9733 120.243 12.84C119.286 12.68 118.515 12.4267 117.928 12.08C118.175 12.56 118.623 13.0133 119.271 13.44C119.95 13.8667 120.568 14.16 121.123 14.32C120.568 14.48 119.873 14.52 119.039 14.44C118.206 14.3333 117.542 14.1333 117.048 13.84C117.264 14.2667 117.619 14.7467 118.113 15.28C118.638 15.8133 119.163 16.16 119.688 16.32C119.225 16.5333 118.592 16.64 117.789 16.64C116.986 16.6133 116.322 16.52 115.797 16.36C115.983 16.84 116.368 17.36 116.955 17.92C117.573 18.48 118.159 18.8667 118.715 19.08C118.159 19.2667 117.434 19.3733 116.538 19.4C115.674 19.4267 114.979 19.3467 114.454 19.16C114.856 19.72 115.504 20.2533 116.399 20.76C117.326 21.24 118.175 21.52 118.947 21.6C118.175 21.7067 117.279 21.64 116.26 21.4C115.272 21.16 114.439 20.8533 113.759 20.48C114.037 20.8533 114.454 21.2 115.01 21.52C115.597 21.8133 116.137 22.0133 116.631 22.12C116.137 22.2 115.55 22.1867 114.871 22.08C114.192 21.9733 113.651 21.7733 113.25 21.48C113.59 22.0133 114.13 22.5333 114.871 23.04C115.612 23.5467 116.307 23.8933 116.955 24.08C116.616 24.2133 116.199 24.28 115.705 24.28C115.242 24.28 114.778 24.24 114.315 24.16C115.149 24.5333 115.813 24.9867 116.307 25.52C115.782 25.12 115.087 24.8 114.223 24.56C113.358 24.32 112.571 24.2267 111.86 24.28C112.107 24.7333 112.524 25.2 113.111 25.68C113.698 26.1333 114.253 26.4533 114.778 26.64C114.223 26.7733 113.543 26.8267 112.74 26.8C111.938 26.7467 111.289 26.6 110.795 26.36C111.104 26.8133 111.567 27.2533 112.185 27.68C112.833 28.1067 113.451 28.4 114.037 28.56C113.667 28.6133 113.265 28.6133 112.833 28.56C112.401 28.5067 111.968 28.4133 111.536 28.28C112.123 28.7067 112.571 29.16 112.879 29.64C112.509 29.2933 111.984 29.0133 111.305 28.8C110.625 28.5867 110.023 28.48 109.498 28.48C109.745 29.0933 110.224 29.72 110.934 30.36C111.644 31 112.37 31.4133 113.111 31.6C112.432 31.6 111.691 31.44 110.888 31.12C110.085 30.7733 109.406 30.3867 108.85 29.96C109.159 30.28 109.406 30.68 109.591 31.16C109.776 31.6133 109.853 32.0133 109.823 32.36C109.483 32.0667 109.004 31.7867 108.387 31.52C107.769 31.2533 107.229 31.1067 106.766 31.08C107.198 31.5867 107.476 32.28 107.599 33.16C107.754 34.0133 107.769 34.7467 107.646 35.36C107.491 34.7467 107.075 34.0933 106.395 33.4C105.747 32.7333 105.083 32.28 104.404 32.04C104.589 32.52 104.651 33.0933 104.589 33.76C104.527 34.4533 104.388 35.0267 104.172 35.48C104.11 34.9733 103.894 34.4133 103.524 33.8C103.184 33.1867 102.798 32.72 102.366 32.4C102.551 32.88 102.551 33.4533 102.366 34.12C102.211 34.8133 101.98 35.36 101.671 35.76C101.702 35.28 101.578 34.72 101.3 34.08C101.023 33.44 100.698 32.92 100.328 32.52C100.451 33.0267 100.39 33.6267 100.143 34.32C99.8956 35.0133 99.5868 35.56 99.2162 35.96C99.278 35.4533 99.1699 34.8533 98.892 34.16C98.6451 33.4933 98.3362 32.96 97.9657 32.56C97.6878 32.9333 97.518 33.4 97.4562 33.96C97.3945 34.5467 97.4099 35.0533 97.5026 35.48C97.2247 35.1333 97.0548 34.6667 96.9931 34.08C96.8387 34.4533 96.6535 34.7467 96.4373 34.96C96.5299 34.6133 96.499 34.1733 96.3447 33.64C96.1903 33.1333 95.9124 32.6267 95.511 32.12ZM106.627 12.68C106.318 12.76 105.994 12.9733 105.654 13.32C106.303 13.4267 106.858 13.44 107.322 13.36C107.322 13.1467 107.229 12.8667 107.044 12.52C106.858 12.1467 106.658 11.84 106.442 11.6C105.886 12.0533 105.299 12.3733 104.682 12.56C105.423 12.4533 106.071 12.4933 106.627 12.68ZM105.145 14C105.299 14 105.453 14.0133 105.608 14.04C105.484 13.9867 105.361 13.92 105.237 13.84C105.206 13.8933 105.176 13.9467 105.145 14ZM104.682 18.6C104.651 18.6 104.62 18.6 104.589 18.6V18.64L104.682 18.6ZM98.5215 21.72C98.5524 21.7467 98.6141 21.7333 98.7068 21.68C98.645 21.7067 98.5832 21.72 98.5215 21.72ZM100.559 23.12C100.405 23.12 100.251 23.1067 100.096 23.08C100.806 23.4533 101.455 23.6667 102.041 23.72C101.918 23.6933 101.795 23.64 101.671 23.56C101.27 23.4267 100.899 23.28 100.559 23.12ZM130.626 31C129.854 31.16 128.944 31.2 127.894 31.12C126.875 31.0133 126.026 30.7867 125.346 30.44C126.119 30.6 127.014 30.64 128.033 30.56C129.083 30.4533 129.947 30.2267 130.626 29.88C130.039 29.48 129.237 29.12 128.218 28.8C127.199 28.48 126.304 28.3333 125.531 28.36C126.119 27.9333 126.921 27.5733 127.94 27.28C128.959 26.9867 129.854 26.84 130.626 26.84C130.163 26.6 129.561 26.44 128.82 26.36C128.079 26.28 127.445 26.3067 126.921 26.44C127.384 26.1733 127.986 26.0133 128.727 25.96C129.468 25.9067 130.102 25.9333 130.626 26.04C130.132 25.8267 129.53 25.68 128.82 25.6C128.14 25.52 127.538 25.5467 127.014 25.68C127.477 25.4133 128.064 25.24 128.774 25.16C129.483 25.08 130.102 25.12 130.626 25.28C130.132 24.9867 129.483 24.7733 128.681 24.64C127.909 24.48 127.245 24.48 126.689 24.64C127.184 24.3467 127.816 24.1333 128.588 24C129.361 23.8667 130.039 23.8667 130.626 24C130.38 23.68 129.931 23.3467 129.283 23C128.635 22.6533 128.094 22.48 127.662 22.48C127.909 22.16 128.357 21.84 129.005 21.52C129.654 21.2 130.194 21.0133 130.626 20.96C130.132 20.96 129.53 20.8 128.82 20.48C128.14 20.1333 127.647 19.7867 127.338 19.44C127.832 19.3867 128.418 19.2 129.098 18.88C129.808 18.56 130.317 18.24 130.626 17.92C130.102 17.9733 129.483 17.8933 128.774 17.68C128.094 17.4667 127.569 17.2 127.199 16.88C127.723 16.9333 128.325 16.8533 129.005 16.64C129.715 16.4267 130.256 16.16 130.626 15.84C129.885 16.0533 129.005 16.1067 127.986 16C126.967 15.8933 126.149 15.6533 125.531 15.28C126.241 15.52 127.106 15.5867 128.125 15.48C129.175 15.3733 130.009 15.12 130.626 14.72C129.978 14.7467 129.222 14.6133 128.357 14.32C127.492 14.0267 126.828 13.68 126.365 13.28C127.014 13.3067 127.77 13.1733 128.635 12.88C129.5 12.5867 130.163 12.2533 130.626 11.88C130.102 11.88 129.483 11.76 128.774 11.52C128.064 11.28 127.523 11 127.153 10.68C127.677 10.7333 128.295 10.6267 129.005 10.36C129.746 10.0933 130.287 9.8 130.626 9.48C130.163 9.08 129.5 8.73333 128.635 8.44C127.77 8.14667 127.029 8.01333 126.411 8.04C126.813 7.61333 127.462 7.26666 128.357 7C129.252 6.73333 130.009 6.6 130.626 6.6C130.565 6.01333 130.287 5.38667 129.793 4.72C129.329 4.05333 128.82 3.54667 128.264 3.2C128.913 3.41333 129.53 3.82666 130.117 4.44C130.704 5.02667 131.104 5.6 131.321 6.16C131.167 5.57333 131.136 4.89333 131.228 4.12C131.352 3.32 131.63 2.68 132.062 2.2C131.908 2.78667 131.908 3.46667 132.062 4.24C132.216 5.01333 132.464 5.65333 132.803 6.16C132.587 5.65333 132.571 5.04 132.757 4.32C132.973 3.6 133.235 3 133.544 2.52C133.42 3.05333 133.405 3.69333 133.498 4.44C133.622 5.16 133.883 5.73333 134.285 6.16C134.78 5.65333 135.165 4.96 135.443 4.08C135.752 3.2 135.829 2.44 135.675 1.8C136.169 2.28 136.555 2.97333 136.833 3.88C137.11 4.76 137.172 5.52 137.018 6.16C137.481 5.65333 137.851 4.98666 138.129 4.16C138.439 3.30667 138.561 2.56 138.5 1.92C138.994 2.4 139.38 3.06667 139.658 3.92C139.967 4.77333 140.075 5.52 139.982 6.16C140.445 5.70667 140.769 5.08 140.955 4.28C141.171 3.48 141.248 2.78667 141.186 2.2C141.711 2.81333 142.097 3.56 142.344 4.44C142.437 3.72 142.637 3.13333 142.946 2.68C142.73 3.16 142.683 3.76 142.807 4.48C142.931 5.17333 143.163 5.73333 143.502 6.16C143.904 5.6 144.135 4.88 144.197 4C144.289 3.12 144.212 2.37333 143.965 1.76C144.367 2.32 144.614 3.04 144.706 3.92C144.799 4.8 144.706 5.54667 144.428 6.16C144.706 5.86667 144.953 5.45333 145.169 4.92C145.416 4.38667 145.54 3.92 145.54 3.52C145.91 3.84 146.22 4.32 146.466 4.96C146.435 4.37333 146.513 3.76 146.698 3.12C146.883 2.48 147.13 1.93333 147.439 1.48C147.254 2.17333 147.239 2.97333 147.393 3.88C147.578 4.78667 147.871 5.54667 148.273 6.16C148.087 5.6 148.102 4.93333 148.319 4.16C148.565 3.38666 148.86 2.76 149.199 2.28C149.075 2.84 149.091 3.52 149.245 4.32C149.43 5.09333 149.723 5.70667 150.125 6.16C150.001 5.70667 149.986 5.18667 150.079 4.6C150.171 4.01333 150.342 3.52 150.588 3.12C150.464 3.57333 150.434 4.09333 150.496 4.68C150.588 5.26667 150.774 5.76 151.051 6.16C151.268 5.94667 151.639 5.77333 152.163 5.64C152.688 5.48 153.104 5.4 153.414 5.4C153.228 5.61333 153.089 5.96 152.997 6.44C152.935 6.92 152.95 7.29333 153.043 7.56C153.414 7.88 153.908 8.16 154.525 8.4C155.174 8.64 155.822 8.82667 156.47 8.96C157.15 9.06667 157.752 9.08 158.277 9C157.875 9.29333 157.365 9.5733 156.748 9.84C156.131 10.08 155.483 10.2667 154.803 10.4C154.155 10.5067 153.568 10.5067 153.043 10.4C153.352 10.56 153.923 10.7467 154.757 10.96C155.622 11.1467 156.578 11.32 157.628 11.48C158.679 11.64 159.635 11.76 160.5 11.84C161.395 11.92 162.013 11.92 162.353 11.84C162.043 12 161.457 12.1467 160.593 12.28C159.728 12.4133 158.771 12.52 157.721 12.6C156.671 12.68 155.698 12.7333 154.803 12.76C153.908 12.7867 153.29 12.76 152.95 12.68C152.641 13.24 152.456 13.9333 152.395 14.76C152.363 15.56 152.487 16.2533 152.765 16.84C152.395 16.3867 152.117 15.7867 151.931 15.04C151.808 15.6267 151.607 16.16 151.329 16.64C151.515 16.08 151.561 15.4267 151.468 14.68C151.376 13.9067 151.175 13.2667 150.866 12.76C151.083 13.3733 151.144 14.1067 151.051 14.96C150.959 15.7867 150.712 16.4667 150.31 17C150.557 16.4133 150.62 15.6933 150.496 14.84C150.403 13.9867 150.156 13.2933 149.755 12.76C149.94 13.2667 149.909 13.88 149.662 14.6C149.445 15.32 149.168 15.9067 148.828 16.36C148.982 15.8267 148.952 15.2133 148.736 14.52C148.55 13.8 148.273 13.2133 147.902 12.76C148.026 13.2133 147.963 13.7733 147.717 14.44C147.5 15.08 147.192 15.5733 146.79 15.92C146.883 15.44 146.822 14.88 146.605 14.24C146.389 13.6 146.096 13.1067 145.725 12.76C145.787 13.4267 145.648 14.2267 145.308 15.16C144.969 16.0933 144.521 16.8 143.965 17.28C143.965 17.2 143.965 17.1067 143.965 17C143.563 17 143.116 17.08 142.622 17.24C142.159 17.3733 141.727 17.5467 141.325 17.76C141.325 18.0533 141.34 18.24 141.371 18.32C141.959 18.3467 142.561 18.4533 143.178 18.64C143.795 18.8267 144.304 19.0533 144.706 19.32C144.058 19.2133 143.302 19.2667 142.437 19.48C141.572 19.6933 140.877 19.96 140.353 20.28C141.062 20.12 141.912 20.0667 142.9 20.12C143.888 20.1733 144.691 20.3867 145.308 20.76C144.599 20.5467 143.765 20.5067 142.807 20.64C141.85 20.7467 141.032 20.9467 140.353 21.24C140.94 21.6133 141.711 21.9333 142.668 22.2C143.656 22.44 144.521 22.52 145.262 22.44C144.675 22.8133 143.888 23.12 142.9 23.36C141.942 23.6 141.094 23.6933 140.353 23.64C140.94 23.96 141.681 24.1733 142.576 24.28C143.471 24.36 144.243 24.3333 144.891 24.2C144.304 24.4667 143.563 24.68 142.668 24.84C141.773 24.9733 141.001 24.9467 140.353 24.76C140.63 25.0533 141.079 25.3733 141.696 25.72C142.313 26.04 142.839 26.2267 143.27 26.28C142.993 26.5733 142.544 26.8933 141.927 27.24C141.31 27.56 140.784 27.7467 140.353 27.8C140.754 28.1467 141.325 28.4667 142.066 28.76C142.839 29.0267 143.502 29.1333 144.058 29.08C143.656 29.4 143.07 29.7067 142.298 30C141.557 30.2667 140.908 30.3867 140.353 30.36C140.816 30.52 141.31 30.8267 141.835 31.28C142.359 31.7333 142.7 32.16 142.854 32.56C142.422 32.3733 141.82 32.28 141.047 32.28C140.306 32.2533 139.719 32.3467 139.287 32.56C139.441 33.1733 139.473 33.9067 139.38 34.76C139.287 35.6133 139.009 36.2933 138.546 36.8C138.7 36.1867 138.7 35.4667 138.546 34.64C138.392 33.8133 138.144 33.12 137.805 32.56C137.435 32.8267 137.125 33.24 136.879 33.8C136.632 34.36 136.508 34.84 136.508 35.24C136.23 35.0267 135.968 34.72 135.721 34.32C135.504 33.92 135.35 33.52 135.258 33.12C135.258 33.7067 135.134 34.32 134.887 34.96C134.641 35.6267 134.347 36.1733 134.007 36.6C134.1 35.9867 134.039 35.2667 133.822 34.44C133.605 33.64 133.266 33.0133 132.803 32.56C132.371 33.0933 132.047 33.7867 131.83 34.64C131.645 35.52 131.66 36.28 131.877 36.92C131.475 36.36 131.167 35.5867 130.95 34.6C130.765 33.6133 130.657 32.4133 130.626 31ZM142.205 12.76C142.144 12.8133 142.097 12.9067 142.066 13.04C142.22 13.0933 142.405 13.16 142.622 13.24C142.468 13.0533 142.329 12.8933 142.205 12.76ZM141.464 15.8C141.927 15.88 142.375 16.0133 142.807 16.2C143.27 16.3867 143.656 16.5867 143.965 16.8C143.934 16.08 143.719 15.2933 143.317 14.44C142.73 14.5467 142.159 14.7067 141.603 14.92C141.542 15.2133 141.495 15.5067 141.464 15.8ZM140.353 15.64C140.445 15.64 140.553 15.64 140.677 15.64C140.645 15.5867 140.63 15.52 140.63 15.44C140.538 15.4933 140.445 15.56 140.353 15.64ZM140.353 18.36C140.63 18.3067 140.955 18.28 141.325 18.28C141.264 18.1733 141.201 18.0267 141.14 17.84C140.831 18 140.569 18.1733 140.353 18.36Z" fill="white"/>
</g>
<defs>
<filter id="filter0_d_12_145" x="0" y="0" width="166.353" height="50.84" filterUnits="userSpaceOnUse" color-interpolation-filters="sRGB">
<feFlood flood-opacity="0" result="BackgroundImageFix"/>
<feColorMatrix in="SourceAlpha" type="matrix" values="0 0 0 0 0 0 0 0 0 0 0 0 0 0 0 0 0 0 127 0" result="hardAlpha"/>
<feOffset dy="4"/>
<feGaussianBlur stdDeviation="2"/>
<feComposite in2="hardAlpha" operator="out"/>
<feColorMatrix type="matrix" values="0 0 0 0 0 0 0 0 0 0 0 0 0 0 0 0 0 0 0.25 0"/>
<feBlend mode="normal" in2="BackgroundImageFix" result="effect1_dropShadow_12_145"/>
<feBlend mode="normal" in="SourceGraphic" in2="effect1_dropShadow_12_145" result="shape"/>
</filter>
</defs>
</svg>
